<mxfile host="app.diagrams.net" agent="Mozilla/5.0 (Windows NT 10.0; Win64; x64) AppleWebKit/537.36 (KHTML, like Gecko) Chrome/140.0.0.0 Safari/537.36" version="28.2.7">
  <diagram name="Page-1" id="9AxSrWI3Pjm-Dh7JYSQk">
    <mxGraphModel dx="872" dy="465" grid="1" gridSize="10" guides="1" tooltips="1" connect="1" arrows="1" fold="1" page="1" pageScale="1" pageWidth="827" pageHeight="1169" math="0" shadow="0">
      <root>
        <mxCell id="0" />
        <mxCell id="1" parent="0" />
        <mxCell id="RmBM76A8gaI8x_Uuhq5M-1" value="" style="edgeStyle=orthogonalEdgeStyle;rounded=0;orthogonalLoop=1;jettySize=auto;html=1;" edge="1" parent="1" source="Rm1UK3UmspnQzo7XXmWm-5" target="Rm1UK3UmspnQzo7XXmWm-7">
          <mxGeometry relative="1" as="geometry" />
        </mxCell>
        <mxCell id="RmBM76A8gaI8x_Uuhq5M-3" style="edgeStyle=orthogonalEdgeStyle;rounded=0;orthogonalLoop=1;jettySize=auto;html=1;entryX=0.5;entryY=0;entryDx=0;entryDy=0;" edge="1" parent="1" source="Rm1UK3UmspnQzo7XXmWm-5" target="Rm1UK3UmspnQzo7XXmWm-10">
          <mxGeometry relative="1" as="geometry" />
        </mxCell>
        <mxCell id="RmBM76A8gaI8x_Uuhq5M-4" style="edgeStyle=orthogonalEdgeStyle;rounded=0;orthogonalLoop=1;jettySize=auto;html=1;entryX=0.5;entryY=0;entryDx=0;entryDy=0;" edge="1" parent="1" source="Rm1UK3UmspnQzo7XXmWm-5" target="Rm1UK3UmspnQzo7XXmWm-8">
          <mxGeometry relative="1" as="geometry" />
        </mxCell>
        <mxCell id="RmBM76A8gaI8x_Uuhq5M-6" style="edgeStyle=orthogonalEdgeStyle;rounded=0;orthogonalLoop=1;jettySize=auto;html=1;entryX=0.5;entryY=0;entryDx=0;entryDy=0;" edge="1" parent="1" source="Rm1UK3UmspnQzo7XXmWm-5" target="Rm1UK3UmspnQzo7XXmWm-11">
          <mxGeometry relative="1" as="geometry" />
        </mxCell>
        <mxCell id="RmBM76A8gaI8x_Uuhq5M-15" style="edgeStyle=orthogonalEdgeStyle;rounded=0;orthogonalLoop=1;jettySize=auto;html=1;entryX=0.5;entryY=1;entryDx=0;entryDy=0;" edge="1" parent="1" source="Rm1UK3UmspnQzo7XXmWm-5" target="RmBM76A8gaI8x_Uuhq5M-9">
          <mxGeometry relative="1" as="geometry" />
        </mxCell>
        <mxCell id="RmBM76A8gaI8x_Uuhq5M-17" style="edgeStyle=orthogonalEdgeStyle;rounded=0;orthogonalLoop=1;jettySize=auto;html=1;entryX=0.5;entryY=1;entryDx=0;entryDy=0;" edge="1" parent="1" source="Rm1UK3UmspnQzo7XXmWm-5" target="RmBM76A8gaI8x_Uuhq5M-10">
          <mxGeometry relative="1" as="geometry" />
        </mxCell>
        <mxCell id="Rm1UK3UmspnQzo7XXmWm-5" value="WAIFUS HOME" style="rounded=1;whiteSpace=wrap;html=1;fillColor=#f8cecc;strokeColor=#b85450;" parent="1" vertex="1">
          <mxGeometry x="160" y="250" width="520" height="140" as="geometry" />
        </mxCell>
        <mxCell id="Rm1UK3UmspnQzo7XXmWm-6" value="MERMAY" style="rounded=1;whiteSpace=wrap;html=1;fillColor=#dae8fc;strokeColor=#6c8ebf;" parent="1" vertex="1">
          <mxGeometry x="20" y="490" width="120" height="60" as="geometry" />
        </mxCell>
        <mxCell id="Rm1UK3UmspnQzo7XXmWm-7" value="INKTOBER" style="rounded=1;whiteSpace=wrap;html=1;fillColor=#6d8764;fontColor=#ffffff;strokeColor=#3A5431;" parent="1" vertex="1">
          <mxGeometry x="150" y="490" width="120" height="60" as="geometry" />
        </mxCell>
        <mxCell id="Rm1UK3UmspnQzo7XXmWm-8" value="CREAUANARY" style="rounded=1;whiteSpace=wrap;html=1;fillColor=#cdeb8b;strokeColor=#36393d;" parent="1" vertex="1">
          <mxGeometry x="280" y="490" width="120" height="60" as="geometry" />
        </mxCell>
        <mxCell id="Rm1UK3UmspnQzo7XXmWm-9" value="PERSONAL" style="rounded=1;whiteSpace=wrap;html=1;fillColor=#e6d0de;gradientColor=#d5739d;strokeColor=#996185;" parent="1" vertex="1">
          <mxGeometry x="550" y="490" width="120" height="60" as="geometry" />
        </mxCell>
        <mxCell id="Rm1UK3UmspnQzo7XXmWm-10" value="STUDIES" style="rounded=1;whiteSpace=wrap;html=1;fillColor=#ffcc99;strokeColor=#36393d;" parent="1" vertex="1">
          <mxGeometry x="410" y="490" width="120" height="60" as="geometry" />
        </mxCell>
        <mxCell id="Rm1UK3UmspnQzo7XXmWm-11" value="SKETCH" style="rounded=1;whiteSpace=wrap;html=1;fillColor=#f5f5f5;gradientColor=#b3b3b3;strokeColor=#666666;" parent="1" vertex="1">
          <mxGeometry x="690" y="490" width="120" height="60" as="geometry" />
        </mxCell>
        <mxCell id="RmBM76A8gaI8x_Uuhq5M-5" style="edgeStyle=orthogonalEdgeStyle;rounded=0;orthogonalLoop=1;jettySize=auto;html=1;entryX=0.567;entryY=0.017;entryDx=0;entryDy=0;entryPerimeter=0;" edge="1" parent="1" source="Rm1UK3UmspnQzo7XXmWm-5" target="Rm1UK3UmspnQzo7XXmWm-9">
          <mxGeometry relative="1" as="geometry" />
        </mxCell>
        <mxCell id="RmBM76A8gaI8x_Uuhq5M-7" style="edgeStyle=orthogonalEdgeStyle;rounded=0;orthogonalLoop=1;jettySize=auto;html=1;entryX=0.567;entryY=-0.033;entryDx=0;entryDy=0;entryPerimeter=0;" edge="1" parent="1" source="Rm1UK3UmspnQzo7XXmWm-5" target="Rm1UK3UmspnQzo7XXmWm-6">
          <mxGeometry relative="1" as="geometry" />
        </mxCell>
        <mxCell id="RmBM76A8gaI8x_Uuhq5M-8" value="WHO IS THIS GUY" style="rounded=1;whiteSpace=wrap;html=1;fillColor=#6a00ff;fontColor=#ffffff;strokeColor=#3700CC;" vertex="1" parent="1">
          <mxGeometry x="150" y="100" width="120" height="60" as="geometry" />
        </mxCell>
        <mxCell id="RmBM76A8gaI8x_Uuhq5M-9" value="CONTACT" style="rounded=1;whiteSpace=wrap;html=1;fillColor=#6a00ff;fontColor=#ffffff;strokeColor=#3700CC;" vertex="1" parent="1">
          <mxGeometry x="354" y="80" width="120" height="60" as="geometry" />
        </mxCell>
        <mxCell id="RmBM76A8gaI8x_Uuhq5M-10" value="SHOP" style="rounded=1;whiteSpace=wrap;html=1;fillColor=#6a00ff;fontColor=#ffffff;strokeColor=#3700CC;" vertex="1" parent="1">
          <mxGeometry x="580" y="100" width="120" height="60" as="geometry" />
        </mxCell>
        <mxCell id="RmBM76A8gaI8x_Uuhq5M-18" style="edgeStyle=orthogonalEdgeStyle;rounded=0;orthogonalLoop=1;jettySize=auto;html=1;entryX=0.408;entryY=1.033;entryDx=0;entryDy=0;entryPerimeter=0;" edge="1" parent="1" source="Rm1UK3UmspnQzo7XXmWm-5" target="RmBM76A8gaI8x_Uuhq5M-8">
          <mxGeometry relative="1" as="geometry" />
        </mxCell>
      </root>
    </mxGraphModel>
  </diagram>
</mxfile>
